OpenSansIPA-CondensedItalic.ufo
<glyph name="sheva-hb" format="2">
	<advance width="0"/>
	<unicode hex="05B0"/>
	<anchor x="-140.6" y="-67" name="_bottom"/>
	<note>
		afii57799
	</note>
	<outline>
		<contour>
			<point x="-167.23333" y="-244.7" type="curve" smooth="yes"/>
			<point x="-109.2" y="-244.7"/>
			<point x="-77.16667" y="-200.33333"/>
			<point x="-77.16667" y="-145.1" type="curve" smooth="yes"/>
			<point x="-77.16667" y="-107.2"/>
			<point x="-99.3" y="-87"/>
			<point x="-139.83333" y="-87" type="curve" smooth="yes"/>
			<point x="-195.33333" y="-87"/>
			<point x="-227.36667" y="-135.2"/>
			<point x="-227.36667" y="-188.66667" type="curve" smooth="yes"/>
			<point x="-227.36667" y="-227.13333"/>
			<point x="-205.3" y="-244.7"/>
		</contour>
		<contour>
			<point x="-220.06667" y="-501" type="curve" smooth="yes"/>
			<point x="-164.56667" y="-501"/>
			<point x="-130.76667" y="-453.03333"/>
			<point x="-130.76667" y="-400.33333" type="curve" smooth="yes"/>
			<point x="-130.76667" y="-361.56667"/>
			<point x="-154.83333" y="-342.53333"/>
			<point x="-192.66667" y="-342.53333" type="curve" smooth="yes"/>
			<point x="-250.46667" y="-342.53333"/>
			<point x="-280.73333" y="-389.43333"/>
			<point x="-280.73333" y="-444.2" type="curve" smooth="yes"/>
			<point x="-280.73333" y="-482.2"/>
			<point x="-258.9" y="-501"/>
		</contour>
	</outline>
</glyph>
<glyph name="hatafsegol-hb" format="2">
	<advance width="0"/>
	<unicode hex="05B1"/>
	<anchor x="-116.16667" y="-71.9" name="_bottom"/>
	<note>
		afii57801
	</note>
	<outline>
		<contour>
			<point x="-441.9" y="-249.6" type="curve" smooth="yes"/>
			<point x="-385.1" y="-249.6"/>
			<point x="-353.36667" y="-204.7"/>
			<point x="-353.36667" y="-149.46667" type="curve" smooth="yes"/>
			<point x="-353.36667" y="-110.7"/>
			<point x="-376.2" y="-91.9"/>
			<point x="-415.26667" y="-91.9" type="curve" smooth="yes"/>
			<point x="-470.53333" y="-91.9"/>
			<point x="-502.8" y="-140.1"/>
			<point x="-502.8" y="-193.8" type="curve" smooth="yes"/>
			<point x="-502.8" y="-230.63333"/>
			<point x="-481.43333" y="-249.6"/>
		</contour>
		<contour>
			<point x="-151.4" y="-249.6" type="curve" smooth="yes"/>
			<point x="-93.9" y="-249.6"/>
			<point x="-62.86667" y="-205.4"/>
			<point x="-62.86667" y="-149.93333" type="curve" smooth="yes"/>
			<point x="-62.86667" y="-111.63333"/>
			<point x="-85.23333" y="-91.9"/>
			<point x="-125.23333" y="-91.9" type="curve" smooth="yes"/>
			<point x="-180.73333" y="-91.9"/>
			<point x="-212.76667" y="-140.56667"/>
			<point x="-212.76667" y="-193.8" type="curve" smooth="yes"/>
			<point x="-212.76667" y="-230.63333"/>
			<point x="-191.63333" y="-249.6"/>
		</contour>
		<contour>
			<point x="106.4" y="-249.6" type="curve" smooth="yes"/>
			<point x="163.9" y="-249.6"/>
			<point x="196.16667" y="-204.7"/>
			<point x="196.16667" y="-150.46667" type="curve" smooth="yes"/>
			<point x="196.16667" y="-112.33333"/>
			<point x="174.5" y="-91.9"/>
			<point x="133.03333" y="-91.9" type="curve" smooth="yes"/>
			<point x="77.53333" y="-91.9"/>
			<point x="46.96667" y="-140.86667"/>
			<point x="46.96667" y="-194.33333" type="curve" smooth="yes"/>
			<point x="46.96667" y="-230.63333"/>
			<point x="67.16667" y="-249.6"/>
		</contour>
		<contour>
			<point x="-351.7" y="-505.9" type="curve" smooth="yes"/>
			<point x="-293.66667" y="-505.9"/>
			<point x="-261.4" y="-459.7"/>
			<point x="-261.4" y="-405.23333" type="curve" smooth="yes"/>
			<point x="-261.4" y="-365.3"/>
			<point x="-285.16667" y="-347.66667"/>
			<point x="-324.83333" y="-347.66667" type="curve" smooth="yes"/>
			<point x="-380.4" y="-347.66667"/>
			<point x="-411.9" y="-396.63333"/>
			<point x="-411.9" y="-450.1" type="curve" smooth="yes"/>
			<point x="-411.9" y="-488.1"/>
			<point x="-390.06667" y="-505.9"/>
		</contour>
		<contour>
			<point x="52.03333" y="-505.9" type="curve" smooth="yes"/>
			<point x="109.76667" y="-505.9"/>
			<point x="142.56667" y="-459.7"/>
			<point x="142.56667" y="-405.46667" type="curve" smooth="yes"/>
			<point x="142.56667" y="-368.1"/>
			<point x="121.13333" y="-347.66667"/>
			<point x="78.9" y="-347.66667" type="curve" smooth="yes"/>
			<point x="23.4" y="-347.66667"/>
			<point x="-7.63333" y="-396.63333"/>
			<point x="-7.63333" y="-449.86667" type="curve" smooth="yes"/>
			<point x="-7.63333" y="-487.86667"/>
			<point x="14.2" y="-505.9"/>
		</contour>
	</outline>
</glyph>
<glyph name="hatafpatah-hb" format="2">
	<advance width="0"/>
	<unicode hex="05B2"/>
	<anchor x="-120.1" y="-71.9" name="_bottom"/>
	<note>
		afii57800
	</note>
	<outline>
		<contour>
			<point x="-460.33333" y="-212.86667" type="line"/>
			<point x="-100.6" y="-212.86667" type="line"/>
			<point x="-82.33333" y="-126.7" type="line"/>
			<point x="-442.06667" y="-126.7" type="line"/>
		</contour>
		<contour>
			<point x="2.23333" y="-505.9" type="curve" smooth="yes"/>
			<point x="59.73333" y="-505.9"/>
			<point x="92.76667" y="-459.7"/>
			<point x="92.76667" y="-405.23333" type="curve" smooth="yes"/>
			<point x="92.76667" y="-365.3"/>
			<point x="69" y="-347.66667"/>
			<point x="29.1" y="-347.66667" type="curve" smooth="yes"/>
			<point x="-28.23333" y="-347.66667"/>
			<point x="-59.5" y="-395.86667"/>
			<point x="-59.5" y="-450.1" type="curve" smooth="yes"/>
			<point x="-59.5" y="-487.86667"/>
			<point x="-37.9" y="-505.9"/>
		</contour>
		<contour>
			<point x="56.6" y="-249.6" type="curve" smooth="yes"/>
			<point x="114.1" y="-249.6"/>
			<point x="146.13333" y="-204.93333"/>
			<point x="146.13333" y="-150.7" type="curve" smooth="yes"/>
			<point x="146.13333" y="-109.53333"/>
			<point x="122.36667" y="-91.9"/>
			<point x="83.23333" y="-91.9" type="curve" smooth="yes"/>
			<point x="28.2" y="-91.9"/>
			<point x="-3.6" y="-140.1"/>
			<point x="-3.6" y="-193.56667" type="curve" smooth="yes"/>
			<point x="-3.6" y="-230.63333"/>
			<point x="16.83333" y="-249.6"/>
		</contour>
	</outline>
</glyph>
<glyph name="hatafqamats-hb" format="2">
	<advance width="0"/>
	<unicode hex="05B3"/>
	<anchor x="-120.1" y="-71.9" name="_bottom"/>
	<note>
		afii57802
	</note>
	<outline>
		<contour>
			<point x="-366.46667" y="-414.86667" type="line"/>
			<point x="-281.63333" y="-414.86667" type="line"/>
			<point x="-238.63333" y="-212.86667" type="line"/>
			<point x="-101.3" y="-212.86667" type="line"/>
			<point x="-83.03333" y="-126.7" type="line"/>
			<point x="-442.76667" y="-126.7" type="line"/>
			<point x="-461.03333" y="-212.86667" type="line"/>
			<point x="-323.46667" y="-212.86667" type="line"/>
		</contour>
		<contour>
			<point x="3.16667" y="-505.9" type="curve" smooth="yes"/>
			<point x="60.9" y="-505.9"/>
			<point x="93.23333" y="-459.46667"/>
			<point x="93.23333" y="-405" type="curve" smooth="yes"/>
			<point x="93.23333" y="-367.86667"/>
			<point x="71.8" y="-347.66667"/>
			<point x="30.03333" y="-347.66667" type="curve" smooth="yes"/>
			<point x="-27.76667" y="-347.66667"/>
			<point x="-58.8" y="-396.1"/>
			<point x="-58.8" y="-449.86667" type="curve" smooth="yes"/>
			<point x="-58.8" y="-487.16667"/>
			<point x="-37.66667" y="-505.9"/>
		</contour>
		<contour>
			<point x="57.53333" y="-249.6" type="curve" smooth="yes"/>
			<point x="115.03333" y="-249.6"/>
			<point x="147.06667" y="-204.7"/>
			<point x="147.06667" y="-150.46667" type="curve" smooth="yes"/>
			<point x="147.06667" y="-110.7"/>
			<point x="123.76667" y="-91.9"/>
			<point x="84.16667" y="-91.9" type="curve" smooth="yes"/>
			<point x="28.66667" y="-91.9"/>
			<point x="-2.9" y="-140.1"/>
			<point x="-2.9" y="-193.56667" type="curve" smooth="yes"/>
			<point x="-2.9" y="-230.63333"/>
			<point x="17.76667" y="-249.6"/>
		</contour>
	</outline>
</glyph>
<glyph name="hiriq-hb" format="2">
	<advance width="0"/>
	<unicode hex="05B4"/>
	<anchor x="-136.4" y="-70.5" name="_bottom"/>
	<note>
		afii57793
	</note>
	<outline>
		<contour>
			<point x="-166.7" y="-247.96667" type="curve" smooth="yes"/>
			<point x="-109.43333" y="-247.96667"/>
			<point x="-77.86667" y="-203.76667"/>
			<point x="-77.86667" y="-149.3" type="curve" smooth="yes"/>
			<point x="-77.86667" y="-109.53333"/>
			<point x="-99.53333" y="-90.5"/>
			<point x="-140.53333" y="-90.5" type="curve" smooth="yes"/>
			<point x="-196.03333" y="-90.5"/>
			<point x="-228.3" y="-139.4"/>
			<point x="-228.3" y="-193.33333" type="curve" smooth="yes"/>
			<point x="-228.3" y="-230.4"/>
			<point x="-205.06667" y="-247.96667"/>
		</contour>
	</outline>
</glyph>
<glyph name="tsere-hb" format="2">
	<advance width="0"/>
	<unicode hex="05B5"/>
	<anchor x="-135" y="-63.96667" name="_bottom"/>
	<note>
		afii57794
	</note>
	<outline>
		<contour>
			<point x="-21.06667" y="-241.66667" type="curve" smooth="yes"/>
			<point x="37.66667" y="-241.66667"/>
			<point x="69.16667" y="-197.46667"/>
			<point x="69.16667" y="-142.23333" type="curve" smooth="yes"/>
			<point x="69.16667" y="-103.7"/>
			<point x="47.73333" y="-83.96667"/>
			<point x="6.56667" y="-83.96667" type="curve" smooth="yes"/>
			<point x="-49.93333" y="-83.96667"/>
			<point x="-82.2" y="-132.86667"/>
			<point x="-82.2" y="-186.33333" type="curve" smooth="yes"/>
			<point x="-82.2" y="-222.23333"/>
			<point x="-60.83333" y="-241.66667"/>
		</contour>
		<contour>
			<point x="-310.86667" y="-241.66667" type="curve" smooth="yes"/>
			<point x="-253.6" y="-241.66667"/>
			<point x="-222.8" y="-196.53333"/>
			<point x="-222.8" y="-141.06667" type="curve" smooth="yes"/>
			<point x="-222.8" y="-101.36667"/>
			<point x="-246.1" y="-83.96667"/>
			<point x="-284" y="-83.96667" type="curve" smooth="yes"/>
			<point x="-339.5" y="-83.96667"/>
			<point x="-371.53333" y="-132.16667"/>
			<point x="-371.53333" y="-185.63333" type="curve" smooth="yes"/>
			<point x="-371.53333" y="-222"/>
			<point x="-351.1" y="-241.66667"/>
		</contour>
	</outline>
</glyph>
<glyph name="segol-hb" format="2">
	<advance width="0"/>
	<unicode hex="05B6"/>
	<anchor x="-103.03333" y="-65.3" name="_bottom"/>
	<note>
		afii57795
	</note>
	<outline>
		<contour>
			<point x="-310.63333" y="-243" type="curve" smooth="yes"/>
			<point x="-253.13333" y="-243"/>
			<point x="-221.8" y="-198.56667"/>
			<point x="-221.8" y="-143.86667" type="curve" smooth="yes"/>
			<point x="-221.8" y="-104.56667"/>
			<point x="-243.46667" y="-85.3"/>
			<point x="-284.46667" y="-85.3" type="curve" smooth="yes"/>
			<point x="-340.5" y="-85.3"/>
			<point x="-373.23333" y="-133.96667"/>
			<point x="-373.23333" y="-187.43333" type="curve" smooth="yes"/>
			<point x="-373.23333" y="-223.8"/>
			<point x="-351.63333" y="-243"/>
		</contour>
		<contour>
			<point x="-19.13333" y="-243.76667" type="curve" smooth="yes"/>
			<point x="38.36667" y="-243.76667"/>
			<point x="69.7" y="-199.33333"/>
			<point x="69.7" y="-144.63333" type="curve" smooth="yes"/>
			<point x="69.7" y="-105.33333"/>
			<point x="48.03333" y="-86.06667"/>
			<point x="7.03333" y="-86.06667" type="curve" smooth="yes"/>
			<point x="-49" y="-86.06667"/>
			<point x="-81.73333" y="-134.73333"/>
			<point x="-81.73333" y="-188.2" type="curve" smooth="yes"/>
			<point x="-81.73333" y="-224.56667"/>
			<point x="-60.13333" y="-243.76667"/>
		</contour>
		<contour>
			<point x="-218.73333" y="-502.56667" type="curve" smooth="yes"/>
			<point x="-161.23333" y="-502.56667"/>
			<point x="-129.9" y="-458.13333"/>
			<point x="-129.9" y="-403.43333" type="curve" smooth="yes"/>
			<point x="-129.9" y="-364.13333"/>
			<point x="-151.56667" y="-344.86667"/>
			<point x="-192.56667" y="-344.86667" type="curve" smooth="yes"/>
			<point x="-248.6" y="-344.86667"/>
			<point x="-281.33333" y="-393.53333"/>
			<point x="-281.33333" y="-447" type="curve" smooth="yes"/>
			<point x="-281.33333" y="-483.36667"/>
			<point x="-259.73333" y="-502.56667"/>
		</contour>
	</outline>
</glyph>
<glyph name="patah-hb" format="2">
	<advance width="0"/>
	<unicode hex="05B7"/>
	<anchor x="-140.6" y="-93.56667" name="_bottom"/>
	<note>
		afii57798
	</note>
	<outline>
		<contour>
			<point x="-343.73333" y="-200.03333" type="line"/>
			<point x="25.63333" y="-200.03333" type="line"/>
			<point x="44.43333" y="-113.56667" type="line"/>
			<point x="-324.93333" y="-113.56667" type="line"/>
		</contour>
	</outline>
</glyph>
<glyph name="qamats-hb" format="2">
	<advance width="0"/>
	<unicode hex="05B8"/>
	<anchor x="-124.66667" y="-99.86667" name="_bottom"/>
	<note>
		afii57797
	</note>
	<outline>
		<contour>
			<point x="-245.83333" y="-408.5" type="line"/>
			<point x="-161.06667" y="-408.5" type="line"/>
			<point x="-118.06667" y="-206.8" type="line"/>
			<point x="23.13333" y="-206.8" type="line"/>
			<point x="41.4" y="-119.86667" type="line"/>
			<point x="-325" y="-119.86667" type="line"/>
			<point x="-343.26667" y="-206.8" type="line"/>
			<point x="-202.83333" y="-206.8" type="line"/>
		</contour>
	</outline>
</glyph>
<glyph name="holam-hb" format="2">
	<advance width="0"/>
	<unicode hex="05B9"/>
	<anchor x="278.3" y="1390" name="_topleft"/>
	<note>
		afii57806
	</note>
	<outline>
		<contour>
			<point x="185.56667" y="1410" type="curve" smooth="yes"/>
			<point x="243.53333" y="1410"/>
			<point x="274.86667" y="1454.66667"/>
			<point x="274.86667" y="1509.6" type="curve" smooth="yes"/>
			<point x="274.86667" y="1548.66667"/>
			<point x="252.73333" y="1567.7"/>
			<point x="212.2" y="1567.7" type="curve" smooth="yes"/>
			<point x="156.7" y="1567.7"/>
			<point x="124.43333" y="1519.03333"/>
			<point x="124.43333" y="1465.8" type="curve" smooth="yes"/>
			<point x="124.43333" y="1427.8"/>
			<point x="146.96667" y="1410"/>
		</contour>
	</outline>
</glyph>
<glyph name="holamhaser-hb" format="2">
	<advance width="0"/>
	<unicode hex="05BA"/>
	<anchor x="279.3" y="1390" name="_topleft"/>
	<note>
		uni05BA
	</note>
	<outline>
		<contour>
			<point x="186.03333" y="1410" type="curve" smooth="yes"/>
			<point x="243.53333" y="1410"/>
			<point x="275.33333" y="1454.43333"/>
			<point x="275.33333" y="1508.9" type="curve" smooth="yes"/>
			<point x="275.33333" y="1548.66667"/>
			<point x="253.43333" y="1567.7"/>
			<point x="212.43333" y="1567.7" type="curve" smooth="yes"/>
			<point x="156.93333" y="1567.7"/>
			<point x="125.2" y="1518.26667"/>
			<point x="125.2" y="1464.8" type="curve" smooth="yes"/>
			<point x="125.2" y="1427.8"/>
			<point x="148.2" y="1410"/>
		</contour>
	</outline>
</glyph>
<glyph name="qubuts-hb" format="2">
	<advance width="0"/>
	<unicode hex="05BB"/>
	<anchor x="-146.2" y="-75.63333" name="_bottom"/>
	<note>
		afii57796
	</note>
	<outline>
		<contour>
			<point x="-325.33333" y="-253.33333" type="curve" smooth="yes"/>
			<point x="-268.3" y="-253.33333"/>
			<point x="-237.26667" y="-208.66667"/>
			<point x="-237.26667" y="-153.66667" type="curve" smooth="yes"/>
			<point x="-237.26667" y="-112.8"/>
			<point x="-260.8" y="-95.63333"/>
			<point x="-298.7" y="-95.63333" type="curve" smooth="yes"/>
			<point x="-353.96667" y="-95.63333"/>
			<point x="-385.53333" y="-144.06667"/>
			<point x="-385.53333" y="-198" type="curve" smooth="yes"/>
			<point x="-385.53333" y="-234.6"/>
			<point x="-365.1" y="-253.33333"/>
		</contour>
		<contour>
			<point x="-201.3" y="-400.03333" type="curve" smooth="yes"/>
			<point x="-144.03333" y="-400.03333"/>
			<point x="-111.23333" y="-353.6"/>
			<point x="-111.23333" y="-299.36667" type="curve" smooth="yes"/>
			<point x="-111.23333" y="-262"/>
			<point x="-132.66667" y="-241.56667"/>
			<point x="-174.66667" y="-241.56667" type="curve" smooth="yes"/>
			<point x="-229.7" y="-241.56667"/>
			<point x="-261.5" y="-290.53333"/>
			<point x="-261.5" y="-343.76667" type="curve" smooth="yes"/>
			<point x="-261.5" y="-381.76667"/>
			<point x="-239.66667" y="-400.03333"/>
		</contour>
		<contour>
			<point x="-73.1" y="-546.26667" type="curve" smooth="yes"/>
			<point x="-15.6" y="-546.26667"/>
			<point x="15.96667" y="-499.76667"/>
			<point x="15.96667" y="-445.3" type="curve" smooth="yes"/>
			<point x="15.96667" y="-407.3"/>
			<point x="-6.16667" y="-388.03333"/>
			<point x="-46.7" y="-388.03333" type="curve" smooth="yes"/>
			<point x="-102.43333" y="-388.03333"/>
			<point x="-134.46667" y="-437.23333"/>
			<point x="-134.46667" y="-490.7" type="curve" smooth="yes"/>
			<point x="-134.46667" y="-528.7"/>
			<point x="-111.93333" y="-546.26667"/>
		</contour>
	</outline>
</glyph>
<glyph name="dagesh-hb" format="2">
	<advance width="0"/>
	<unicode hex="05BC"/>
	<anchor x="52.9" y="665.56667" name="_center"/>
	<note>
		afii57807
	</note>
	<outline>
		<contour>
			<point x="39.16667" y="586.6" type="curve" smooth="yes"/>
			<point x="96.66667" y="586.6"/>
			<point x="128" y="631.03333"/>
			<point x="128" y="685.73333" type="curve" smooth="yes"/>
			<point x="128" y="725.03333"/>
			<point x="106.33333" y="744.3"/>
			<point x="65.33333" y="744.3" type="curve" smooth="yes"/>
			<point x="9.3" y="744.3"/>
			<point x="-23.43333" y="695.63333"/>
			<point x="-23.43333" y="642.16667" type="curve" smooth="yes"/>
			<point x="-23.43333" y="605.8"/>
			<point x="-1.83333" y="586.6"/>
		</contour>
	</outline>
</glyph>
<glyph name="siluqleft-hb" format="2">
	<advance width="0"/>
	<unicode hex="05BD"/>
	<anchor x="-151.9" y="-123.76667" name="_bottom"/>
	<note>
		afii57839
	</note>
	<outline>
		<contour>
			<point x="-262.4" y="-464.93333" type="line"/>
			<point x="-168.03333" y="-464.93333" type="line"/>
			<point x="-99.23333" y="-143.76667" type="line"/>
			<point x="-193.36667" y="-143.76667" type="line"/>
		</contour>
	</outline>
</glyph>
<glyph name="maqaf-hb" format="2">
	<advance width="559.63333"/>
	<unicode hex="05BE"/>
	<note>
		afii57645
	</note>
	<outline>
		<contour>
			<point x="187.56667" y="1143.36667" type="line"/>
			<point x="628.6" y="1143.36667" type="line"/>
			<point x="659.93333" y="1289.46667" type="line"/>
			<point x="218.9" y="1289.46667" type="line"/>
		</contour>
	</outline>
</glyph>
<glyph name="shindot-hb" format="2">
	<advance width="0"/>
	<unicode hex="05C1"/>
	<anchor x="197.9" y="1094.8" name="_topright"/>
	<note>
		afii57804
	</note>
	<outline>
		<contour>
			<point x="186.03333" y="1410" type="curve" smooth="yes"/>
			<point x="243.53333" y="1410"/>
			<point x="275.1" y="1454.43333"/>
			<point x="275.1" y="1508.9" type="curve" smooth="yes"/>
			<point x="275.1" y="1548.66667"/>
			<point x="253.43333" y="1567.7"/>
			<point x="212.43333" y="1567.7" type="curve" smooth="yes"/>
			<point x="156.93333" y="1567.7"/>
			<point x="124.43333" y="1519.03333"/>
			<point x="124.43333" y="1465.56667" type="curve" smooth="yes"/>
			<point x="124.43333" y="1427.8"/>
			<point x="147.43333" y="1410"/>
		</contour>
	</outline>
</glyph>
<glyph name="sindot-hb" format="2">
	<advance width="0"/>
	<unicode hex="05C2"/>
	<anchor x="278.3" y="1390" name="_topleft"/>
	<note>
		afii57803
	</note>
	<outline>
		<contour>
			<point x="185.8" y="1410" type="curve" smooth="yes"/>
			<point x="243.3" y="1410"/>
			<point x="275.1" y="1454.43333"/>
			<point x="275.1" y="1508.9" type="curve" smooth="yes"/>
			<point x="275.1" y="1548.66667"/>
			<point x="253.43333" y="1567.7"/>
			<point x="212.2" y="1567.7" type="curve" smooth="yes"/>
			<point x="156.7" y="1567.7"/>
			<point x="124.43333" y="1519.26667"/>
			<point x="124.43333" y="1465.8" type="curve" smooth="yes"/>
			<point x="124.43333" y="1427.56667"/>
			<point x="147.2" y="1410"/>
		</contour>
	</outline>
</glyph>
<glyph name="qamatsqatan-hb" format="2">
	<advance width="0"/>
	<unicode hex="05C7"/>
	<anchor x="-122.2" y="-54.73333" name="_bottom"/>
	<note>
		uni05C7
	</note>
	<outline>
		<contour>
			<point x="-222.83333" y="-312.03333" type="line"/>
			<point x="-144.36667" y="-312.03333" type="line"/>
			<point x="-110.96667" y="-155.83333" type="line"/>
			<point x="14.76667" y="-155.83333" type="line"/>
			<point x="31.63333" y="-74.73333" type="line"/>
			<point x="-296.43333" y="-74.73333" type="line"/>
			<point x="-313.53333" y="-155.83333" type="line"/>
			<point x="-189.66667" y="-155.83333" type="line"/>
		</contour>
	</outline>
</glyph>
<glyph name="alef-hb" format="2">
	<advance width="859.36667"/>
	<unicode hex="05D0"/>
	<anchor x="242.3" y="-201.63333" name="bottom"/>
	<anchor x="-96.16667" y="0" name="bottomleft"/>
	<anchor x="283.86667" y="264" name="center"/>
	<anchor x="546.23333" y="1094.8" name="top"/>
	<anchor x="136.16667" y="1094.8" name="topleft"/>
	<note>
		afii57664
	</note>
	<outline>
		<contour>
			<point x="-58.46667" y="0" type="line"/>
			<point x="90.63333" y="0" type="line"/>
			<point x="186.86667" y="452.46667" type="line" smooth="yes"/>
			<point x="203.66667" y="532.86667"/>
			<point x="227.3" y="594.1"/>
			<point x="259.9" y="641.06667" type="curve" smooth="yes"/>
			<point x="281.76667" y="671.46667"/>
			<point x="307.46667" y="696.03333"/>
			<point x="338.3" y="714.76667" type="curve"/>
			<point x="483.06667" y="0" type="line"/>
			<point x="652.56667" y="0" type="line"/>
			<point x="556.4" y="446.53333" type="line"/>
			<point x="611.2" y="470.23333"/>
			<point x="679.8" y="514"/>
			<point x="721.13333" y="564.26667" type="curve" smooth="yes"/>
			<point x="766.1" y="618.46667"/>
			<point x="798.73333" y="700.86667"/>
			<point x="824.03333" y="820.6" type="curve" smooth="yes"/>
			<point x="923.26667" y="1290" type="line"/>
			<point x="774.16667" y="1290" type="line"/>
			<point x="675.86667" y="827.2" type="line" smooth="yes"/>
			<point x="660.36667" y="753.76667"/>
			<point x="638.16667" y="696.86667"/>
			<point x="609.36667" y="654.93333" type="curve" smooth="yes"/>
			<point x="585.33333" y="619.3"/>
			<point x="557" y="594.33333"/>
			<point x="524" y="575.6" type="curve"/>
			<point x="376.33333" y="1290" type="line"/>
			<point x="208.3" y="1290" type="line"/>
			<point x="307.6" y="844.26667" type="line"/>
			<point x="218.56667" y="806.46667"/>
			<point x="157.06667" y="753.7"/>
			<point x="113.46667" y="673.4" type="curve" smooth="yes"/>
			<point x="79.66667" y="612.63333"/>
			<point x="54.46667" y="532.2"/>
			<point x="38.93333" y="459.3" type="curve" smooth="yes"/>
		</contour>
	</outline>
</glyph>
<glyph name="bet-hb" format="2">
	<advance width="807.5"/>
	<unicode hex="05D1"/>
	<anchor x="287.7" y="0" name="bottom"/>
	<anchor x="-96.16667" y="0" name="bottomleft"/>
	<anchor x="359.53333" y="561.9" name="center"/>
	<anchor x="520.03333" y="1094.8" name="top"/>
	<anchor x="136.16667" y="1094.8" name="topleft"/>
	<note>
		afii57665
	</note>
	<outline>
		<contour>
			<point x="-43.96667" y="0" type="line"/>
			<point x="640.8" y="0" type="line"/>
			<point x="668.13333" y="127.63333" type="line"/>
			<point x="566.26667" y="127.63333" type="line"/>
			<point x="733.93333" y="916.86667" type="line" smooth="yes"/>
			<point x="745.93333" y="972.56667"/>
			<point x="756.13333" y="1029.96667"/>
			<point x="756.13333" y="1090.26667" type="curve" smooth="yes"/>
			<point x="756.13333" y="1128.2"/>
			<point x="750.96667" y="1148.16667"/>
			<point x="741.1" y="1172.8" type="curve" smooth="yes"/>
			<point x="722.63333" y="1220.76667"/>
			<point x="698.13333" y="1253.06667"/>
			<point x="645.83333" y="1276.3" type="curve" smooth="yes"/>
			<point x="592.8" y="1300.16667"/>
			<point x="524.93333" y="1310"/>
			<point x="428.96667" y="1310" type="curve" smooth="yes"/>
			<point x="365.56667" y="1310"/>
			<point x="301.2" y="1306.76667"/>
			<point x="227.76667" y="1298.36667" type="curve"/>
			<point x="203.46667" y="1167.5" type="line"/>
			<point x="236.33333" y="1170.73333" type="line"/>
			<point x="299" y="1176.83333"/>
			<point x="379.5" y="1180.6"/>
			<point x="443.7" y="1180.6" type="curve" smooth="yes"/>
			<point x="477.5" y="1180.6"/>
			<point x="526.23333" y="1176.96667"/>
			<point x="557.93333" y="1154.53333" type="curve" smooth="yes"/>
			<point x="588.33333" y="1133.16667"/>
			<point x="598.7" y="1099.9"/>
			<point x="598.7" y="1047.23333" type="curve" smooth="yes"/>
			<point x="598.7" y="1007.03333"/>
			<point x="592.46667" y="970.33333"/>
			<point x="582.46667" y="924.1" type="curve" smooth="yes"/>
			<point x="413.4" y="127.63333" type="line"/>
			<point x="-16.86667" y="127.63333" type="line"/>
		</contour>
	</outline>
</glyph>
<glyph name="gimel-hb" format="2">
	<advance width="699.4"/>
	<unicode hex="05D2"/>
	<anchor x="233.53333" y="0" name="bottom"/>
	<anchor x="-96.16667" y="0" name="bottomleft"/>
	<anchor x="265.7" y="660.06667" name="center"/>
	<anchor x="465.86667" y="1094.8" name="top"/>
	<anchor x="136.16667" y="1094.8" name="topleft"/>
	<note>
		afii57666
	</note>
	<outline>
		<contour>
			<point x="48.2" y="-9.6" type="curve" smooth="yes"/>
			<point x="206.3" y="-9.6"/>
			<point x="284.63333" y="90.93333"/>
			<point x="343.83333" y="204.6" type="curve"/>
			<point x="351.06667" y="204.6" type="line"/>
			<point x="328.43333" y="0" type="line"/>
			<point x="445.06667" y="0" type="line"/>
			<point x="654.6" y="984.7" type="line" smooth="yes"/>
			<point x="665.23333" y="1032.86667"/>
			<point x="670.86667" y="1075.46667"/>
			<point x="670.86667" y="1111.13333" type="curve" smooth="yes"/>
			<point x="670.86667" y="1249.7"/>
			<point x="585.93333" y="1310"/>
			<point x="441.4" y="1310" type="curve" smooth="yes"/>
			<point x="401.5" y="1310"/>
			<point x="359.03333" y="1305.23333"/>
			<point x="316" y="1293.36667" type="curve"/>
			<point x="293.56667" y="1158.46667" type="line"/>
			<point x="338.66667" y="1170.4"/>
			<point x="378.6" y="1178.5"/>
			<point x="411.86667" y="1178.5" type="curve" smooth="yes"/>
			<point x="480.16667" y="1178.5"/>
			<point x="514.66667" y="1144.56667"/>
			<point x="514.66667" y="1083.66667" type="curve" smooth="yes"/>
			<point x="514.66667" y="1063.83333"/>
			<point x="511.13333" y="1027.96667"/>
			<point x="503.83333" y="991.7" type="curve" smooth="yes"/>
			<point x="403.53333" y="519.4" type="line" smooth="yes"/>
			<point x="349.8" y="265.33333"/>
			<point x="242.3" y="135.13333"/>
			<point x="70.93333" y="135.13333" type="curve" smooth="yes"/>
			<point x="44.76667" y="135.13333"/>
			<point x="26.9" y="140.76667"/>
			<point x="13.43333" y="149.76667" type="curve"/>
			<point x="-33.66667" y="1.86667" type="line"/>
			<point x="-4" y="-5.9"/>
			<point x="18.16667" y="-9.6"/>
		</contour>
	</outline>
</glyph>
<glyph name="dalet-hb" format="2">
	<advance width="733.3"/>
	<unicode hex="05D3"/>
	<anchor x="250.6" y="0" name="bottom"/>
	<anchor x="-96.16667" y="0" name="bottomleft"/>
	<anchor x="234.23333" y="658.5" name="center"/>
	<anchor x="482.93333" y="1094.8" name="top"/>
	<anchor x="136.16667" y="1094.8" name="topleft"/>
	<note>
		afii57667
	</note>
	<outline>
		<contour>
			<point x="225.03333" y="0" type="line"/>
			<point x="377.2" y="0" type="line"/>
			<point x="565.8" y="888.1" type="line" smooth="yes"/>
			<point x="586.03333" y="983.5"/>
			<point x="624.8" y="1045.16667"/>
			<point x="680.73333" y="1093.73333" type="curve" smooth="yes"/>
			<point x="731.6" y="1137.23333"/>
			<point x="792.1" y="1162.36667"/>
			<point x="822.2" y="1172.43333" type="curve"/>
			<point x="843.96667" y="1290" type="line"/>
			<point x="157.96667" y="1290" type="line"/>
			<point x="130.63333" y="1162.36667" type="line"/>
			<point x="611.53333" y="1162.36667" type="line"/>
			<point x="596.76667" y="1155.3" type="line" smooth="yes"/>
			<point x="567.93333" y="1142.83333"/>
			<point x="526.1" y="1110.13333"/>
			<point x="501.16667" y="1081.83333" type="curve" smooth="yes"/>
			<point x="463.7" y="1039.46667"/>
			<point x="430.86667" y="970.36667"/>
			<point x="415.26667" y="897.66667" type="curve" smooth="yes"/>
		</contour>
	</outline>
</glyph>
<glyph name="he-hb" format="2">
	<advance width="956.6"/>
	<unicode hex="05D4"/>
	<anchor x="362.13333" y="0" name="bottom"/>
	<anchor x="-96.16667" y="0" name="bottomleft"/>
	<anchor x="480.63333" y="547.9" name="center"/>
	<anchor x="594.46667" y="1094.8" name="top"/>
	<anchor x="136.16667" y="1094.8" name="topleft"/>
	<note>
		afii57668
	</note>
	<outline>
		<contour>
			<point x="540.93333" y="0" type="line"/>
			<point x="693.86667" y="0" type="line"/>
			<point x="888.86667" y="916.86667" type="line" smooth="yes"/>
			<point x="902.5" y="980.26667"/>
			<point x="910.36667" y="1036.73333"/>
			<point x="910.36667" y="1080.16667" type="curve" smooth="yes"/>
			<point x="910.36667" y="1152.16667"/>
			<point x="888.93333" y="1200.46667"/>
			<point x="854.76667" y="1236" type="curve" smooth="yes"/>
			<point x="835.8" y="1255.56667"/>
			<point x="811.06667" y="1271.43333"/>
			<point x="780.33333" y="1282.83333" type="curve" smooth="yes"/>
			<point x="727.73333" y="1302.36667"/>
			<point x="655.83333" y="1310"/>
			<point x="582.23333" y="1310" type="curve" smooth="yes"/>
			<point x="510" y="1310"/>
			<point x="400.8" y="1301.13333"/>
			<point x="269.26667" y="1283.46667" type="curve"/>
			<point x="244.2" y="1153.53333" type="line"/>
			<point x="403.66667" y="1170.33333"/>
			<point x="515.2" y="1180.36667"/>
			<point x="577.46667" y="1180.36667" type="curve" smooth="yes"/>
			<point x="612.16667" y="1180.36667"/>
			<point x="669.9" y="1176.83333"/>
			<point x="705.96667" y="1157.8" type="curve" smooth="yes"/>
			<point x="742.73333" y="1138.3"/>
			<point x="753.56667" y="1101.03333"/>
			<point x="753.56667" y="1049.4" type="curve" smooth="yes"/>
			<point x="753.56667" y="1012.63333"/>
			<point x="747.1" y="972.63333"/>
			<point x="737.1" y="924.1" type="curve" smooth="yes"/>
		</contour>
		<contour>
			<point x="-0.3" y="0" type="line"/>
			<point x="152.1" y="0" type="line"/>
			<point x="325.8" y="816.5" type="line"/>
			<point x="173.16667" y="816.5" type="line"/>
		</contour>
	</outline>
</glyph>
<glyph name="vav-hb" format="2">
	<advance width="420.7"/>
	<unicode hex="05D5"/>
	<anchor x="94.56667" y="0" name="bottom"/>
	<anchor x="-96.16667" y="0" name="bottomleft"/>
	<anchor x="1.13333" y="663.93333" name="center"/>
	<anchor x="326.9" y="1094.8" name="top"/>
	<anchor x="136.16667" y="1094.8" name="topleft"/>
	<note>
		afii57669
	</note>
	<outline>
		<contour>
			<point x="1.23333" y="0" type="line"/>
			<point x="153.63333" y="0" type="line"/>
			<point x="427.4" y="1290" type="line"/>
			<point x="275.23333" y="1290" type="line"/>
		</contour>
	</outline>
</glyph>
<glyph name="zayin-hb" format="2">
	<advance width="474.6"/>
	<unicode hex="05D6"/>
	<anchor x="121.63333" y="0" name="bottom"/>
	<anchor x="-96.16667" y="0" name="bottomleft"/>
	<anchor x="34.3" y="668.63333" name="center"/>
	<anchor x="353.96667" y="1094.8" name="top"/>
	<anchor x="136.16667" y="1094.8" name="topleft"/>
	<note>
		afii57670
	</note>
	<outline>
		<contour>
			<point x="21.73333" y="0" type="line"/>
			<point x="174.13333" y="0" type="line"/>
			<point x="319.6" y="684.33333" type="line" smooth="yes"/>
			<point x="341.36667" y="786.06667"/>
			<point x="358.63333" y="838.7"/>
			<point x="392.73333" y="920.2" type="curve" smooth="yes"/>
			<point x="409.06667" y="958.73333"/>
			<point x="427.33333" y="995.73333"/>
			<point x="445.6" y="1029.03333" type="curve" smooth="yes"/>
			<point x="481.5" y="1093.83333"/>
			<point x="522.53333" y="1143.23333"/>
			<point x="554.16667" y="1166.6" type="curve"/>
			<point x="578.5" y="1290" type="line"/>
			<point x="256.83333" y="1290" type="line"/>
			<point x="229.5" y="1162.36667" type="line"/>
			<point x="416.03333" y="1162.36667" type="line"/>
			<point x="386.96667" y="1145.36667"/>
			<point x="357.86667" y="1116.8"/>
			<point x="326.13333" y="1072.56667" type="curve" smooth="yes"/>
			<point x="270.16667" y="995.43333"/>
			<point x="204.63333" y="860.46667"/>
			<point x="168.6" y="691.33333" type="curve" smooth="yes"/>
		</contour>
	</outline>
</glyph>
<glyph name="het-hb" format="2">
	<advance width="956.6"/>
	<unicode hex="05D7"/>
	<anchor x="362.13333" y="0" name="bottom"/>
	<anchor x="-96.16667" y="0" name="bottomleft"/>
	<anchor x="478.3" y="547.9" name="center"/>
	<anchor x="594.46667" y="1094.8" name="top"/>
	<anchor x="136.16667" y="1094.8" name="topleft"/>
	<note>
		afii57671
	</note>
	<outline>
		<contour>
			<point x="-0.3" y="0" type="line"/>
			<point x="152.1" y="0" type="line"/>
			<point x="402.8" y="1168.6" type="line"/>
			<point x="470.43333" y="1176.36667"/>
			<point x="520.36667" y="1180.36667"/>
			<point x="566.63333" y="1180.36667" type="curve" smooth="yes"/>
			<point x="607.53333" y="1180.36667"/>
			<point x="672.16667" y="1177.13333"/>
			<point x="709.23333" y="1155" type="curve" smooth="yes"/>
			<point x="741.83333" y="1136.26667"/>
			<point x="753.8" y="1104.23333"/>
			<point x="753.8" y="1053.83333" type="curve" smooth="yes"/>
			<point x="753.8" y="1016.36667"/>
			<point x="747.56667" y="974.73333"/>
			<point x="737.1" y="924.1" type="curve" smooth="yes"/>
			<point x="540.93333" y="0" type="line"/>
			<point x="693.86667" y="0" type="line"/>
			<point x="888.86667" y="916.86667" type="line" smooth="yes"/>
			<point x="901.8" y="976.76667"/>
			<point x="908.73333" y="1031.13333"/>
			<point x="908.73333" y="1073.63333" type="curve" smooth="yes"/>
			<point x="908.73333" y="1137.46667"/>
			<point x="892.66667" y="1191.13333"/>
			<point x="855.93333" y="1232.26667" type="curve" smooth="yes"/>
			<point x="840.46667" y="1250.2"/>
			<point x="819.46667" y="1265.36667"/>
			<point x="793.4" y="1276.53333" type="curve" smooth="yes"/>
			<point x="738.23333" y="1300.96667"/>
			<point x="661.66667" y="1310"/>
			<point x="586.9" y="1310" type="curve" smooth="yes"/>
			<point x="515.13333" y="1310"/>
			<point x="410.83333" y="1301.6"/>
			<point x="269.26667" y="1283.23333" type="curve"/>
		</contour>
	</outline>
</glyph>
<glyph name="tet-hb" format="2">
	<advance width="935.33333"/>
	<unicode hex="05D8"/>
	<anchor x="351.5" y="0" name="bottom"/>
	<anchor x="-96.16667" y="0" name="bottomleft"/>
	<anchor x="473.03333" y="571.23333" name="center"/>
	<anchor x="583.83333" y="1094.8" name="top"/>
	<anchor x="136.16667" y="1094.8" name="topleft"/>
	<note>
		afii57672
	</note>
	<outline>
		<contour>
			<point x="333.2" y="-20.7" type="curve" smooth="yes"/>
			<point x="404.26667" y="-20.7"/>
			<point x="486.93333" y="0.4"/>
			<point x="558.1" y="55.43333" type="curve" smooth="yes"/>
			<point x="616.83333" y="102"/>
			<point x="680.36667" y="177.76667"/>
			<point x="726.3" y="273" type="curve" smooth="yes"/>
			<point x="774.43333" y="370.76667"/>
			<point x="817.16667" y="502.3"/>
			<point x="846" y="636.6" type="curve" smooth="yes"/>
			<point x="870.2" y="750.13333"/>
			<point x="883.26667" y="846.93333"/>
			<point x="883.26667" y="941.1" type="curve" smooth="yes"/>
			<point x="883.26667" y="1070.83333"/>
			<point x="859.36667" y="1164.8"/>
			<point x="806.66667" y="1227.73333" type="curve" smooth="yes"/>
			<point x="761.7" y="1282.4"/>
			<point x="700.03333" y="1310"/>
			<point x="617.86667" y="1310" type="curve" smooth="yes"/>
			<point x="591.03333" y="1310"/>
			<point x="557.16667" y="1307.23333"/>
			<point x="524" y="1302.23333" type="curve"/>
			<point x="501.96667" y="1171.06667" type="line"/>
			<point x="531.06667" y="1176.3"/>
			<point x="557.66667" y="1179.6"/>
			<point x="582.16667" y="1179.6" type="curve" smooth="yes"/>
			<point x="613.86667" y="1179.6"/>
			<point x="646.2" y="1173.3"/>
			<point x="670.7" y="1154.86667" type="curve" smooth="yes"/>
			<point x="710.3" y="1125.16667"/>
			<point x="734.63333" y="1060.56667"/>
			<point x="734.63333" y="973.4" type="curve" smooth="yes"/>
			<point x="734.63333" y="829.33333"/>
			<point x="675.66667" y="507.06667"/>
			<point x="590.2" y="344.56667" type="curve" smooth="yes"/>
			<point x="564.23333" y="273.13333"/>
			<point x="536.93333" y="227.03333"/>
			<point x="506.66667" y="190.93333" type="curve" smooth="yes"/>
			<point x="454.86667" y="133.76667"/>
			<point x="401.2" y="112.46667"/>
			<point x="352.43333" y="112.46667" type="curve" smooth="yes"/>
			<point x="292.46667" y="112.46667"/>
			<point x="257.23333" y="139.03333"/>
			<point x="236.43333" y="178.73333" type="curve" smooth="yes"/>
			<point x="215.1" y="219.8"/>
			<point x="209.5" y="275.6"/>
			<point x="209.5" y="331.33333" type="curve" smooth="yes"/>
			<point x="209.5" y="420.73333"/>
			<point x="223.26667" y="511.1"/>
			<point x="250.73333" y="641.96667" type="curve" smooth="yes"/>
			<point x="388.2" y="1289.3" type="line"/>
			<point x="233.63333" y="1289.3" type="line"/>
			<point x="96.8" y="648.5" type="line" smooth="yes"/>
			<point x="72.13333" y="531.23333"/>
			<point x="59.3" y="433.03333"/>
			<point x="59.3" y="344.3" type="curve" smooth="yes"/>
			<point x="59.3" y="250.66667"/>
			<point x="73.3" y="172"/>
			<point x="102.7" y="112.86667" type="curve" smooth="yes"/>
			<point x="145.03333" y="26.7"/>
			<point x="220.33333" y="-20.7"/>
		</contour>
	</outline>
</glyph>
<glyph name="yod-hb" format="2">
	<advance width="414.2"/>
	<unicode hex="05D9"/>
	<anchor x="91.43333" y="0" name="bottom"/>
	<anchor x="-96.16667" y="0" name="bottomleft"/>
	<anchor x="21.06667" y="780.1" name="center"/>
	<anchor x="323.76667" y="1094.8" name="top"/>
	<anchor x="136.16667" y="1094.8" name="topleft"/>
	<note>
		afii57673
	</note>
	<outline>
		<contour>
			<point x="94.3" y="466.6" type="line"/>
			<point x="135.26667" y="466.6" type="line"/>
			<point x="281.66667" y="625.83333" type="line"/>
			<point x="421.26667" y="1290" type="line"/>
			<point x="269.33333" y="1290" type="line"/>
		</contour>
	</outline>
</glyph>
<glyph name="finalkaf-hb" format="2">
	<advance width="727.13333"/>
	<unicode hex="05DA"/>
	<anchor x="247.4" y="0" name="bottom"/>
	<anchor x="-96.16667" y="0" name="bottomleft"/>
	<anchor x="218.93333" y="651.53333" name="center"/>
	<anchor x="479.73333" y="1094.8" name="top"/>
	<anchor x="136.16667" y="1094.8" name="topleft"/>
	<note>
		afii57674
	</note>
	<outline>
		<contour>
			<point x="210.06667" y="-492" type="line"/>
			<point x="363.3" y="-492" type="line"/>
			<point x="621.53333" y="723.1" type="line" smooth="yes"/>
			<point x="642.2" y="819.13333"/>
			<point x="653.66667" y="907.63333"/>
			<point x="653.66667" y="983.23333" type="curve" smooth="yes"/>
			<point x="653.66667" y="1022.63333"/>
			<point x="650.43333" y="1058.03333"/>
			<point x="644.5" y="1090.2" type="curve" smooth="yes"/>
			<point x="628.7" y="1170.2"/>
			<point x="593.76667" y="1228.4"/>
			<point x="539.1" y="1264.56667" type="curve" smooth="yes"/>
			<point x="494.9" y="1294.93333"/>
			<point x="439.23333" y="1310"/>
			<point x="370.8" y="1310" type="curve" smooth="yes"/>
			<point x="311.1" y="1310"/>
			<point x="246.46667" y="1299.4"/>
			<point x="183.43333" y="1276.96667" type="curve"/>
			<point x="158.63333" y="1133.36667" type="line"/>
			<point x="162.33333" y="1134.9"/>
			<point x="165.8" y="1135.9"/>
			<point x="169.5" y="1137.43333" type="curve" smooth="yes"/>
			<point x="238.1" y="1162.3"/>
			<point x="293.2" y="1173.8"/>
			<point x="350.73333" y="1173.8" type="curve" smooth="yes"/>
			<point x="399.36667" y="1173.8"/>
			<point x="435.46667" y="1157.83333"/>
			<point x="459.96667" y="1126.13333" type="curve" smooth="yes"/>
			<point x="486.46667" y="1092.43333"/>
			<point x="499.13333" y="1040.76667"/>
			<point x="499.13333" y="970.13333" type="curve" smooth="yes"/>
			<point x="499.13333" y="905.9"/>
			<point x="488.36667" y="820.36667"/>
			<point x="469.46667" y="730.1" type="curve" smooth="yes"/>
		</contour>
	</outline>
</glyph>
<glyph name="kaf-hb" format="2">
	<advance width="687.5"/>
	<unicode hex="05DB"/>
	<anchor x="227.96667" y="0" name="bottom"/>
	<anchor x="-96.16667" y="0" name="bottomleft"/>
	<anchor x="222.56667" y="654.63333" name="center"/>
	<anchor x="460.3" y="1094.8" name="top"/>
	<anchor x="136.16667" y="1094.8" name="topleft"/>
	<note>
		afii57675
	</note>
	<outline>
		<contour>
			<point x="115.66667" y="-20" type="curve" smooth="yes"/>
			<point x="197.4" y="-20"/>
			<point x="271.2" y="3.4"/>
			<point x="332.76667" y="48.1" type="curve" smooth="yes"/>
			<point x="392.33333" y="91.8"/>
			<point x="443.03333" y="155.03333"/>
			<point x="483.8" y="236.7" type="curve" smooth="yes"/>
			<point x="524.5" y="316.7"/>
			<point x="555.8" y="412.83333"/>
			<point x="579.63333" y="525" type="curve" smooth="yes"/>
			<point x="621.5" y="723.1" type="line" smooth="yes"/>
			<point x="642.86667" y="822.63333"/>
			<point x="653.16667" y="912.76667"/>
			<point x="653.16667" y="984.86667" type="curve" smooth="yes"/>
			<point x="653.16667" y="1021.33333"/>
			<point x="650.7" y="1054.03333"/>
			<point x="645.23333" y="1084.5" type="curve" smooth="yes"/>
			<point x="632.83333" y="1155.9"/>
			<point x="605.03333" y="1209.76667"/>
			<point x="564.06667" y="1247.4" type="curve" smooth="yes"/>
			<point x="516.76667" y="1288.9"/>
			<point x="451.66667" y="1310"/>
			<point x="369.23333" y="1310" type="curve" smooth="yes"/>
			<point x="311.06667" y="1310"/>
			<point x="245.66667" y="1299.4"/>
			<point x="182.63333" y="1276.96667" type="curve"/>
			<point x="158.13333" y="1130.33333" type="line"/>
			<point x="163.53333" y="1132.1"/>
			<point x="167.93333" y="1134.1"/>
			<point x="173.1" y="1135.86667" type="curve" smooth="yes"/>
			<point x="243.03333" y="1161.83333"/>
			<point x="298.83333" y="1173.8"/>
			<point x="355.53333" y="1173.8" type="curve" smooth="yes"/>
			<point x="400.9" y="1173.8"/>
			<point x="435.36667" y="1158.13333"/>
			<point x="459.46667" y="1125.8" type="curve" smooth="yes"/>
			<point x="484.56667" y="1091.4"/>
			<point x="497" y="1038.26667"/>
			<point x="497" y="967.16667" type="curve" smooth="yes"/>
			<point x="497" y="900.16667"/>
			<point x="486.16667" y="819.26667"/>
			<point x="467.33333" y="730.1" type="curve" smooth="yes"/>
			<point x="425.46667" y="532" type="line" smooth="yes"/>
			<point x="398.1" y="400.93333"/>
			<point x="350.63333" y="264.33333"/>
			<point x="276.93333" y="185.46667" type="curve" smooth="yes"/>
			<point x="236.33333" y="140.76667"/>
			<point x="181.9" y="113.36667"/>
			<point x="106.5" y="113.36667" type="curve" smooth="yes"/>
			<point x="61.46667" y="113.36667"/>
			<point x="-1.56667" y="122.13333"/>
			<point x="-45.36667" y="141.36667" type="curve" smooth="yes"/>
			<point x="-48.13333" y="143.13333"/>
			<point x="-50.13333" y="143.9"/>
			<point x="-53.13333" y="145.66667" type="curve"/>
			<point x="-76.63333" y="9.56667" type="line"/>
			<point x="-19.2" y="-10.06667"/>
			<point x="47.23333" y="-20"/>
		</contour>
	</outline>
</glyph>
<glyph name="lamed-hb" format="2">
	<advance width="678.56667"/>
	<unicode hex="05DC"/>
	<anchor x="223.23333" y="0" name="bottom"/>
	<anchor x="-96.16667" y="0" name="bottomleft"/>
	<anchor x="172.26667" y="655.4" name="center"/>
	<anchor x="455.56667" y="1094.8" name="top"/>
	<anchor x="136.16667" y="1094.8" name="topleft"/>
	<note>
		afii57676
	</note>
	<outline>
		<contour>
			<point x="103.66667" y="0" type="line"/>
			<point x="255.73333" y="0" type="line"/>
			<point x="458.23333" y="503.5" type="line"/>
			<point x="758.13333" y="1160.56667" type="line"/>
			<point x="786.33333" y="1293.9" type="line"/>
			<point x="340.2" y="1293.9" type="line"/>
			<point x="397.5" y="1564.56667" type="line"/>
			<point x="245.56667" y="1564.56667" type="line"/>
			<point x="159.63333" y="1160.83333" type="line"/>
			<point x="609.03333" y="1160.83333" type="line"/>
			<point x="301.93333" y="496.46667" type="line"/>
		</contour>
	</outline>
</glyph>
<glyph name="finalmem-hb" format="2">
	<advance width="956.06667"/>
	<unicode hex="05DD"/>
	<anchor x="362.36667" y="0" name="bottom"/>
	<anchor x="-96.16667" y="0" name="bottomleft"/>
	<anchor x="478.53333" y="547.9" name="center"/>
	<anchor x="594.7" y="1094.8" name="top"/>
	<anchor x="136.16667" y="1094.8" name="topleft"/>
	<note>
		afii57677
	</note>
	<outline>
		<contour>
			<point x="-0.3" y="0" type="line"/>
			<point x="694.1" y="0" type="line"/>
			<point x="890.4" y="924.9" type="line" smooth="yes"/>
			<point x="905.56667" y="995.73333"/>
			<point x="912.1" y="1046.4"/>
			<point x="912.1" y="1092.5" type="curve" smooth="yes"/>
			<point x="912.1" y="1133.76667"/>
			<point x="905.93333" y="1169.33333"/>
			<point x="893.36667" y="1198.6" type="curve" smooth="yes"/>
			<point x="848.36667" y="1302.46667"/>
			<point x="702.56667" y="1310"/>
			<point x="579.5" y="1310" type="curve" smooth="yes"/>
			<point x="503.9" y="1310"/>
			<point x="390.53333" y="1300.43333"/>
			<point x="270.66667" y="1288.6" type="curve"/>
		</contour>
		<contour>
			<point x="179.66667" y="127.63333" type="line"/>
			<point x="403.5" y="1170.7" type="line"/>
			<point x="472.53333" y="1177.3"/>
			<point x="518.5" y="1180.36667"/>
			<point x="564.7" y="1180.36667" type="curve" smooth="yes"/>
			<point x="628.6" y="1180.36667"/>
			<point x="706.16667" y="1178.83333"/>
			<point x="737.96667" y="1144.26667" type="curve" smooth="yes"/>
			<point x="753.63333" y="1126.83333"/>
			<point x="759.16667" y="1094.13333"/>
			<point x="759.16667" y="1069.7" type="curve" smooth="yes"/>
			<point x="759.16667" y="1041"/>
			<point x="751.3" y="988.86667"/>
			<point x="739.4" y="932.13333" type="curve" smooth="yes"/>
			<point x="569.03333" y="127.63333" type="line"/>
		</contour>
	</outline>
</glyph>
<glyph name="mem-hb" format="2">
	<advance width="933.43333"/>
	<unicode hex="05DE"/>
	<anchor x="350.93333" y="0" name="bottom"/>
	<anchor x="-96.16667" y="0" name="bottomleft"/>
	<anchor x="476.43333" y="559.56667" name="center"/>
	<anchor x="583.26667" y="1094.8" name="top"/>
	<anchor x="136.16667" y="1094.8" name="topleft"/>
	<note>
		afii57678
	</note>
	<outline>
		<contour>
			<point x="-74.4" y="0" type="line"/>
			<point x="79" y="0" type="line"/>
			<point x="370.76667" y="962.53333" type="line"/>
			<point x="383.7" y="985.3" type="line" smooth="yes"/>
			<point x="401.86667" y="1017.06667"/>
			<point x="437.26667" y="1061.83333"/>
			<point x="472.33333" y="1096.3" type="curve" smooth="yes"/>
			<point x="521.23333" y="1144.06667"/>
			<point x="579.43333" y="1177.8"/>
			<point x="642.86667" y="1177.8" type="curve" smooth="yes"/>
			<point x="712.2" y="1177.8"/>
			<point x="736.26667" y="1132.56667"/>
			<point x="736.26667" y="1061.3" type="curve" smooth="yes"/>
			<point x="736.26667" y="981.03333"/>
			<point x="725.8" y="934.76667"/>
			<point x="705.43333" y="841" type="curve" smooth="yes"/>
			<point x="553.1" y="127.63333" type="line"/>
			<point x="325.26667" y="127.63333" type="line"/>
			<point x="298.16667" y="0" type="line"/>
			<point x="678.16667" y="0" type="line"/>
			<point x="855.13333" y="834.46667" type="line" smooth="yes"/>
			<point x="878.66667" y="943.6"/>
			<point x="887.13333" y="1017.33333"/>
			<point x="887.13333" y="1091.2" type="curve" smooth="yes"/>
			<point x="887.13333" y="1155.33333"/>
			<point x="880.5" y="1191.26667"/>
			<point x="858.83333" y="1228.16667" type="curve" smooth="yes"/>
			<point x="831.03333" y="1276.33333"/>
			<point x="777.83333" y="1310"/>
			<point x="694.03333" y="1310" type="curve" smooth="yes"/>
			<point x="566.06667" y="1310"/>
			<point x="459.1" y="1243.6"/>
			<point x="392.63333" y="1137.03333" type="curve"/>
			<point x="386.16667" y="1137.03333" type="line"/>
			<point x="386.86667" y="1149.66667"/>
			<point x="387.33333" y="1162.06667"/>
			<point x="386.56667" y="1175.63333" type="curve" smooth="yes"/>
			<point x="385.03333" y="1210.66667"/>
			<point x="380.1" y="1250.03333"/>
			<point x="372.63333" y="1290" type="curve"/>
			<point x="223.56667" y="1290" type="line"/>
			<point x="237.26667" y="1197.5"/>
			<point x="241.8" y="1156.86667"/>
			<point x="241.8" y="1121.56667" type="curve" smooth="yes"/>
			<point x="241.8" y="1074.3"/>
			<point x="229.13333" y="1002.33333"/>
			<point x="213.4" y="952.26667" type="curve" smooth="yes"/>
		</contour>
	</outline>
</glyph>
<glyph name="finalnun-hb" format="2">
	<advance width="424.5"/>
	<unicode hex="05DF"/>
	<anchor x="96.2" y="0" name="bottom"/>
	<anchor x="-96.16667" y="0" name="bottomleft"/>
	<anchor x="212.36667" y="547.9" name="center"/>
	<anchor x="328.53333" y="1094.8" name="top"/>
	<anchor x="136.16667" y="1094.8" name="topleft"/>
	<note>
		afii57679
	</note>
	<outline>
		<contour>
			<point x="-86.7" y="-492" type="line"/>
			<point x="65.46667" y="-492" type="line"/>
			<point x="355.93333" y="874.9" type="line" smooth="yes"/>
			<point x="380.1" y="988.03333"/>
			<point x="392.5" y="1106.83333"/>
			<point x="392.5" y="1219.16667" type="curve" smooth="yes"/>
			<point x="392.5" y="1244.46667"/>
			<point x="391.8" y="1269.13333"/>
			<point x="390.33333" y="1290" type="curve"/>
			<point x="240.2" y="1290" type="line"/>
			<point x="242.3" y="1293.43333"/>
			<point x="243.76667" y="1201.23333"/>
			<point x="243.76667" y="1205.73333" type="curve" smooth="yes"/>
			<point x="243.76667" y="1159.73333"/>
			<point x="232.13333" y="1008.8"/>
			<point x="205.16667" y="881.9" type="curve" smooth="yes"/>
		</contour>
	</outline>
</glyph>
<glyph name="nun-hb" format="2">
	<advance width="617.53333"/>
	<unicode hex="05E0"/>
	<anchor x="193.1" y="0" name="bottom"/>
	<anchor x="-96.16667" y="0" name="bottomleft"/>
	<anchor x="309.26667" y="547.9" name="center"/>
	<anchor x="425.43333" y="1094.8" name="top"/>
	<anchor x="136.16667" y="1094.8" name="topleft"/>
	<note>
		afii57680
	</note>
	<outline>
		<contour>
			<point x="-82.36667" y="0" type="line"/>
			<point x="325.56667" y="0" type="line"/>
			<point x="345.1" y="43.56667" type="line" smooth="yes"/>
			<point x="373.43333" y="105.16667"/>
			<point x="418.13333" y="238.13333"/>
			<point x="439.23333" y="337.4" type="curve" smooth="yes"/>
			<point x="576.13333" y="984.7" type="line" smooth="yes"/>
			<point x="585.3" y="1027.76667"/>
			<point x="591.46667" y="1072.73333"/>
			<point x="591.46667" y="1111.46667" type="curve" smooth="yes"/>
			<point x="591.46667" y="1166.2"/>
			<point x="579.13333" y="1208.53333"/>
			<point x="554.86667" y="1240.16667" type="curve" smooth="yes"/>
			<point x="516.93333" y="1288.76667"/>
			<point x="451.16667" y="1310"/>
			<point x="366.26667" y="1310" type="curve" smooth="yes"/>
			<point x="332.36667" y="1310"/>
			<point x="283.76667" y="1305.93333"/>
			<point x="240.63333" y="1293.83333" type="curve"/>
			<point x="217.66667" y="1159.63333" type="line"/>
			<point x="268.03333" y="1173.2"/>
			<point x="304.23333" y="1178.5"/>
			<point x="332.76667" y="1178.5" type="curve" smooth="yes"/>
			<point x="368.36667" y="1178.5"/>
			<point x="394.26667" y="1169.9"/>
			<point x="411.63333" y="1154.46667" type="curve" smooth="yes"/>
			<point x="428.76667" y="1139.03333"/>
			<point x="437.36667" y="1117"/>
			<point x="437.36667" y="1088.9" type="curve" smooth="yes"/>
			<point x="437.36667" y="1066.5"/>
			<point x="433.66667" y="1029.66667"/>
			<point x="425.36667" y="991.7" type="curve" smooth="yes"/>
			<point x="294.06667" y="371" type="line" smooth="yes"/>
			<point x="276.66667" y="289.23333"/>
			<point x="249.5" y="202.73333"/>
			<point x="217.16667" y="127.63333" type="curve"/>
			<point x="-55.26667" y="127.63333" type="line"/>
		</contour>
	</outline>
</glyph>
<glyph name="samekh-hb" format="2">
	<advance width="926.23333"/>
	<unicode hex="05E1"/>
	<anchor x="347.06667" y="0" name="bottom"/>
	<anchor x="-96.16667" y="0" name="bottomleft"/>
	<anchor x="467.43333" y="564.23333" name="center"/>
	<anchor x="579.4" y="1094.8" name="top"/>
	<anchor x="136.16667" y="1094.8" name="topleft"/>
	<note>
		afii57681
	</note>
	<outline>
		<contour>
			<point x="334.2" y="-20" type="curve" smooth="yes"/>
			<point x="614.93333" y="-20"/>
			<point x="767.1" y="289.9"/>
			<point x="841.1" y="629.13333" type="curve" smooth="yes"/>
			<point x="866.46667" y="747.56667"/>
			<point x="879.53333" y="850.6"/>
			<point x="879.53333" y="943.73333" type="curve" smooth="yes"/>
			<point x="879.53333" y="1181.1"/>
			<point x="785.1" y="1310"/>
			<point x="598" y="1310" type="curve" smooth="yes"/>
			<point x="502.16667" y="1310"/>
			<point x="384.86667" y="1303.83333"/>
			<point x="244.36667" y="1292.03333" type="curve"/>
			<point x="220.3" y="1161.56667" type="line"/>
			<point x="262.76667" y="1163.8"/>
			<point x="305.76667" y="1167.03333"/>
			<point x="348.23333" y="1169.26667" type="curve"/>
			<point x="281.63333" y="1107.46667"/>
			<point x="225.2" y="1027.6"/>
			<point x="185.8" y="943.13333" type="curve" smooth="yes"/>
			<point x="111.23333" y="782.43333"/>
			<point x="55.33333" y="516.43333"/>
			<point x="55.33333" y="341.16667" type="curve" smooth="yes"/>
			<point x="55.33333" y="115"/>
			<point x="147.66667" y="-20"/>
		</contour>
		<contour>
			<point x="348.76667" y="112.46667" type="curve" smooth="yes"/>
			<point x="253.2" y="112.46667"/>
			<point x="206.06667" y="184.33333"/>
			<point x="206.06667" y="318.5" type="curve" smooth="yes"/>
			<point x="206.06667" y="404.9"/>
			<point x="223.36667" y="527.9"/>
			<point x="252.36667" y="660.9" type="curve" smooth="yes"/>
			<point x="303.63333" y="896.1"/>
			<point x="373.1" y="1062.73333"/>
			<point x="500.33333" y="1173.66667" type="curve"/>
			<point x="530.16667" y="1176.53333"/>
			<point x="556.33333" y="1177.53333"/>
			<point x="591.06667" y="1177.53333" type="curve" smooth="yes"/>
			<point x="636.33333" y="1177.53333"/>
			<point x="667.33333" y="1160.03333"/>
			<point x="687.9" y="1133.16667" type="curve" smooth="yes"/>
			<point x="720.13333" y="1091.1"/>
			<point x="729.5" y="1027.06667"/>
			<point x="729.5" y="968.23333" type="curve" smooth="yes"/>
			<point x="729.5" y="813.73333"/>
			<point x="667.66667" y="483.76667"/>
			<point x="577.6" y="310.26667" type="curve" smooth="yes"/>
			<point x="527.63333" y="206.46667"/>
			<point x="454.13333" y="112.46667"/>
		</contour>
	</outline>
</glyph>
<glyph name="ayin-hb" format="2">
	<advance width="888.23333"/>
	<unicode hex="05E2"/>
	<anchor x="328.06667" y="0" name="bottom"/>
	<anchor x="-96.16667" y="0" name="bottomleft"/>
	<anchor x="444.23333" y="547.9" name="center"/>
	<anchor x="560.4" y="1094.8" name="top"/>
	<anchor x="136.16667" y="1094.8" name="topleft"/>
	<note>
		afii57682
	</note>
	<outline>
		<contour>
			<point x="-72.33333" y="-52.73333" type="line"/>
			<point x="206.03333" y="-6.76667" type="line"/>
			<point x="336.93333" y="15.56667"/>
			<point x="434.56667" y="62.33333"/>
			<point x="512.6" y="132.86667" type="curve" smooth="yes"/>
			<point x="683.53333" y="261.1"/>
			<point x="745.66667" y="467.46667"/>
			<point x="824.03333" y="717.06667" type="curve" smooth="yes"/>
			<point x="1000.4" y="1290" type="line"/>
			<point x="846.76667" y="1290" type="line"/>
			<point x="668.66667" y="709.66667" type="line" smooth="yes"/>
			<point x="637.2" y="607.96667"/>
			<point x="603.7" y="519.2"/>
			<point x="579.3" y="465.46667" type="curve" smooth="yes"/>
			<point x="524.23333" y="335.83333"/>
			<point x="457.8" y="238.7"/>
			<point x="357.4" y="183.13333" type="curve"/>
			<point x="368.36667" y="706.7" type="line"/>
			<point x="366.53333" y="1290" type="line"/>
			<point x="215" y="1290" type="line"/>
			<point x="221.8" y="45.4" type="line"/>
			<point x="271.23333" y="132.46667" type="line"/>
			<point x="243" y="126.83333"/>
			<point x="216.63333" y="121.43333"/>
			<point x="186.7" y="115.8" type="curve" smooth="yes"/>
			<point x="-45.23333" y="76.6" type="line"/>
		</contour>
	</outline>
</glyph>
<glyph name="finalpe-hb" format="2">
	<advance width="942.8"/>
	<unicode hex="05E3"/>
	<anchor x="355.23333" y="0" name="bottom"/>
	<anchor x="-96.16667" y="0" name="bottomleft"/>
	<anchor x="478.2" y="842.83333" name="center"/>
	<anchor x="587.56667" y="1094.8" name="top"/>
	<anchor x="136.16667" y="1094.8" name="topleft"/>
	<note>
		afii57683
	</note>
	<outline>
		<contour>
			<point x="428.66667" y="-492" type="line"/>
			<point x="580.83333" y="-492" type="line"/>
			<point x="822.13333" y="641.96667" type="line" smooth="yes"/>
			<point x="846.56667" y="757.83333"/>
			<point x="859.16667" y="858.73333"/>
			<point x="859.16667" y="943.43333" type="curve" smooth="yes"/>
			<point x="859.16667" y="1055.33333"/>
			<point x="837.6" y="1145.73333"/>
			<point x="793.76667" y="1208.73333" type="curve" smooth="yes"/>
			<point x="747.86667" y="1274.86667"/>
			<point x="678.63333" y="1310"/>
			<point x="584.66667" y="1310" type="curve" smooth="yes"/>
			<point x="496.56667" y="1310"/>
			<point x="414.06667" y="1278.63333"/>
			<point x="343.03333" y="1223.73333" type="curve" smooth="yes"/>
			<point x="242.2" y="1145.6"/>
			<point x="166.06667" y="1019.23333"/>
			<point x="134.13333" y="864.36667" type="curve" smooth="yes"/>
			<point x="122.83333" y="808.33333"/>
			<point x="117.3" y="752.23333"/>
			<point x="117.3" y="709.73333" type="curve" smooth="yes"/>
			<point x="117.3" y="532.6"/>
			<point x="214.36667" y="445.66667"/>
			<point x="361.33333" y="438.43333" type="curve" smooth="yes"/>
			<point x="379.4" y="436.1" type="line"/>
			<point x="432.4" y="556.13333" type="line"/>
			<point x="414.43333" y="556.83333" type="line" smooth="yes"/>
			<point x="372.5" y="557.76667"/>
			<point x="340.13333" y="565.06667"/>
			<point x="317.46667" y="582.3" type="curve" smooth="yes"/>
			<point x="277.33333" y="610.63333"/>
			<point x="265.43333" y="661.76667"/>
			<point x="265.43333" y="724.6" type="curve" smooth="yes"/>
			<point x="265.43333" y="768.8"/>
			<point x="272.36667" y="817.46667"/>
			<point x="285.13333" y="867.86667" type="curve" smooth="yes"/>
			<point x="302.66667" y="936.93333"/>
			<point x="331.56667" y="1006.73333"/>
			<point x="381.86667" y="1071.36667" type="curve" smooth="yes"/>
			<point x="430.8" y="1133.63333"/>
			<point x="489.63333" y="1177.53333"/>
			<point x="565.1" y="1177.53333" type="curve" smooth="yes"/>
			<point x="664.86667" y="1177.53333"/>
			<point x="712.53333" y="1101.26667"/>
			<point x="712.53333" y="954.03333" type="curve" smooth="yes"/>
			<point x="712.53333" y="876.1"/>
			<point x="698.36667" y="775.83333"/>
			<point x="671.13333" y="648.96667" type="curve" smooth="yes"/>
		</contour>
	</outline>
</glyph>
<glyph name="pe-hb" format="2">
	<advance width="902.63333"/>
	<unicode hex="05E4"/>
	<anchor x="335.26667" y="0" name="bottom"/>
	<anchor x="-96.16667" y="0" name="bottomleft"/>
	<anchor x="500.16667" y="843.3" name="center"/>
	<anchor x="567.6" y="1094.8" name="top"/>
	<anchor x="136.16667" y="1094.8" name="topleft"/>
	<note>
		afii57684
	</note>
	<outline>
		<contour>
			<point x="281.83333" y="-20" type="curve" smooth="yes"/>
			<point x="422.96667" y="-20"/>
			<point x="524.66667" y="24.6"/>
			<point x="619.93333" y="148.33333" type="curve" smooth="yes"/>
			<point x="788.9" y="367.56667"/>
			<point x="859.66667" y="749.26667"/>
			<point x="859.66667" y="946.5" type="curve" smooth="yes"/>
			<point x="859.66667" y="1170.9"/>
			<point x="769.2" y="1310"/>
			<point x="582.1" y="1310" type="curve" smooth="yes"/>
			<point x="493.93333" y="1310"/>
			<point x="411.6" y="1279.1"/>
			<point x="341.56667" y="1223.36667" type="curve" smooth="yes"/>
			<point x="243.63333" y="1147"/>
			<point x="168.86667" y="1022.46667"/>
			<point x="134.63333" y="864.36667" type="curve" smooth="yes"/>
			<point x="122.56667" y="809.1"/>
			<point x="117.8" y="762.96667"/>
			<point x="117.8" y="720.46667" type="curve" smooth="yes"/>
			<point x="117.8" y="551"/>
			<point x="188.03333" y="445.43333"/>
			<point x="361.83333" y="438.43333" type="curve" smooth="yes"/>
			<point x="379.9" y="436.1" type="line"/>
			<point x="432.9" y="556.13333" type="line"/>
			<point x="414.93333" y="556.83333" type="line" smooth="yes"/>
			<point x="312.7" y="558.7"/>
			<point x="265.16667" y="608.1"/>
			<point x="265.16667" y="714.63333" type="curve" smooth="yes"/>
			<point x="265.16667" y="755.76667"/>
			<point x="273.63333" y="821.3"/>
			<point x="284.86667" y="867.86667" type="curve" smooth="yes"/>
			<point x="302.4" y="942.53333"/>
			<point x="339.96667" y="1017.46667"/>
			<point x="381.83333" y="1071.6" type="curve" smooth="yes"/>
			<point x="432.83333" y="1137.93333"/>
			<point x="494.96667" y="1177.53333"/>
			<point x="567.13333" y="1177.53333" type="curve" smooth="yes"/>
			<point x="686.06667" y="1177.53333"/>
			<point x="711.5" y="1069.06667"/>
			<point x="711.5" y="957.86667" type="curve" smooth="yes"/>
			<point x="711.5" y="881.63333"/>
			<point x="698.56667" y="784.56667"/>
			<point x="670.43333" y="656.43333" type="curve" smooth="yes"/>
			<point x="625.8" y="453.7"/>
			<point x="574.53333" y="317.8"/>
			<point x="510.03333" y="229.56667" type="curve" smooth="yes"/>
			<point x="450.53333" y="148.73333"/>
			<point x="387.13333" y="112.46667"/>
			<point x="307.3" y="112.46667" type="curve" smooth="yes"/>
			<point x="252.66667" y="112.46667"/>
			<point x="162.13333" y="119.1"/>
			<point x="74.76667" y="136.13333" type="curve"/>
			<point x="49.46667" y="2.8" type="line"/>
			<point x="82.36667" y="-2.66667" type="line" smooth="yes"/>
			<point x="134.4" y="-11.73333"/>
			<point x="220.63333" y="-20"/>
		</contour>
	</outline>
</glyph>
<glyph name="finaltsadi-hb" format="2">
	<advance width="731.5"/>
	<unicode hex="05E5"/>
	<anchor x="249.96667" y="0" name="bottom"/>
	<anchor x="-96.16667" y="0" name="bottomleft"/>
	<anchor x="366.13333" y="547.9" name="center"/>
	<anchor x="482.3" y="1094.8" name="top"/>
	<anchor x="136.16667" y="1094.8" name="topleft"/>
	<note>
		afii57685
	</note>
	<outline>
		<contour>
			<point x="-25.2" y="-492" type="line"/>
			<point x="131.4" y="-492" type="line"/>
			<point x="345.76667" y="517.13333" type="line"/>
			<point x="257.63333" y="437.3" type="line"/>
			<point x="279.2" y="437.36667"/>
			<point x="298.9" y="437.66667"/>
			<point x="316.96667" y="438.43333" type="curve" smooth="yes"/>
			<point x="462.4" y="457.6"/>
			<point x="562.8" y="511.46667"/>
			<point x="628.3" y="607.7" type="curve" smooth="yes"/>
			<point x="674.66667" y="675.53333"/>
			<point x="705" y="761.1"/>
			<point x="720.06667" y="831.9" type="curve" smooth="yes"/>
			<point x="817.1" y="1290" type="line"/>
			<point x="665.16667" y="1290" type="line"/>
			<point x="569.6" y="838.5" type="line" smooth="yes"/>
			<point x="538.7" y="693.23333"/>
			<point x="470.8" y="610.3"/>
			<point x="352.63333" y="566.6" type="curve" smooth="yes"/>
			<point x="343.3" y="566.6"/>
			<point x="295.06667" y="566.6"/>
			<point x="268.23333" y="587.66667" type="curve"/>
			<point x="343.43333" y="499.7" type="line"/>
			<point x="321.46667" y="1290" type="line"/>
			<point x="156.23333" y="1290" type="line"/>
			<point x="198.13333" y="558.86667" type="line"/>
		</contour>
	</outline>
</glyph>
<glyph name="tsadi-hb" format="2">
	<advance width="837.6"/>
	<unicode hex="05E6"/>
	<anchor x="303.13333" y="0" name="bottom"/>
	<anchor x="-96.16667" y="0" name="bottomleft"/>
	<anchor x="145.93333" y="377.36667" name="center"/>
	<anchor x="535.46667" y="1094.8" name="top"/>
	<anchor x="136.16667" y="1094.8" name="topleft"/>
	<note>
		afii57686
	</note>
	<outline>
		<contour>
			<point x="-74.5" y="0" type="line"/>
			<point x="612.06667" y="0" type="line"/>
			<point x="628.06667" y="81.26667" type="line"/>
			<point x="522.83333" y="479.73333" type="line"/>
			<point x="574.3" y="522.7"/>
			<point x="616.76667" y="569.26667"/>
			<point x="653" y="626.03333" type="curve" smooth="yes"/>
			<point x="702.13333" y="701.6"/>
			<point x="741.73333" y="795.03333"/>
			<point x="784.23333" y="917.53333" type="curve" smooth="yes"/>
			<point x="830.7" y="1026.36667"/>
			<point x="869" y="1143.13333"/>
			<point x="912.03333" y="1290" type="curve"/>
			<point x="759.46667" y="1290" type="line"/>
			<point x="666.6" y="992.9" type="line" smooth="yes"/>
			<point x="615.8" y="831.1"/>
			<point x="561.73333" y="717.16667"/>
			<point x="483.86667" y="628.6" type="curve"/>
			<point x="482.86667" y="635.06667"/>
			<point x="481.16667" y="644.4"/>
			<point x="479.93333" y="650.86667" type="curve"/>
			<point x="354.63333" y="1290" type="line"/>
			<point x="196.7" y="1290" type="line"/>
			<point x="347.83333" y="548.43333" type="line"/>
			<point x="453.06667" y="123.2" type="line"/>
			<point x="404.86667" y="124.6"/>
			<point x="355.9" y="126.23333"/>
			<point x="307.7" y="127.63333" type="curve"/>
			<point x="-47.4" y="127.63333" type="line"/>
		</contour>
	</outline>
</glyph>
<glyph name="qof-hb" format="2">
	<advance width="920.9"/>
	<unicode hex="05E7"/>
	<anchor x="344.66667" y="0" name="bottom"/>
	<anchor x="-96.16667" y="0" name="bottomleft"/>
	<anchor x="435.36667" y="700.73333" name="center"/>
	<anchor x="577" y="1094.8" name="top"/>
	<anchor x="136.16667" y="1094.8" name="topleft"/>
	<note>
		afii57687
	</note>
	<outline>
		<contour>
			<point x="278.93333" y="0" type="curve"/>
			<point x="425.83333" y="0" type="line"/>
			<point x="430.53333" y="19.33333" type="line" smooth="yes"/>
			<point x="451.83333" y="106.43333"/>
			<point x="496.33333" y="205.73333"/>
			<point x="557.46667" y="336.06667" type="curve" smooth="yes"/>
			<point x="605.83333" y="438.5"/>
			<point x="638.83333" y="506.9"/>
			<point x="666.43333" y="564.43333" type="curve" smooth="yes"/>
			<point x="965.93333" y="1175.43333" type="line"/>
			<point x="988.76667" y="1290" type="line"/>
			<point x="271.33333" y="1290" type="line"/>
			<point x="244.76667" y="1162.36667" type="line"/>
			<point x="802.56667" y="1162.36667" type="line"/>
			<point x="510.3" y="566.63333" type="line"/>
			<point x="421.36667" y="385.9"/>
			<point x="317.6" y="165.43333"/>
			<point x="286.2" y="59.96667" type="curve" smooth="yes"/>
			<point x="282.5" y="46.53333"/>
			<point x="280.5" y="35.5"/>
			<point x="278.96667" y="25.86667" type="curve" smooth="yes"/>
			<point x="277.43333" y="13.8"/>
			<point x="278.76667" y="6"/>
		</contour>
		<contour>
			<point x="-106.13333" y="-492.46667" type="line"/>
			<point x="46.26667" y="-492.46667" type="line"/>
			<point x="312.96667" y="763.43333" type="line"/>
			<point x="160.8" y="763.43333" type="line"/>
		</contour>
	</outline>
</glyph>
<glyph name="resh-hb" format="2">
	<advance width="719.33333"/>
	<unicode hex="05E8"/>
	<anchor x="243.5" y="0" name="bottom"/>
	<anchor x="-96.16667" y="0" name="bottomleft"/>
	<anchor x="248.1" y="653.83333" name="center"/>
	<anchor x="475.83333" y="1094.8" name="top"/>
	<anchor x="136.16667" y="1094.8" name="topleft"/>
	<note>
		afii57688
	</note>
	<outline>
		<contour>
			<point x="310.8" y="0" type="line"/>
			<point x="462.96667" y="0" type="line"/>
			<point x="657.96667" y="916.86667" type="line" smooth="yes"/>
			<point x="672.43333" y="985.2"/>
			<point x="680.83333" y="1045.8"/>
			<point x="680.83333" y="1091.9" type="curve" smooth="yes"/>
			<point x="680.83333" y="1136.36667"/>
			<point x="671.86667" y="1174.06667"/>
			<point x="654.93333" y="1204.9" type="curve" smooth="yes"/>
			<point x="644.76667" y="1226.26667"/>
			<point x="630.83333" y="1243.8"/>
			<point x="613.13333" y="1257.56667" type="curve" smooth="yes"/>
			<point x="558.73333" y="1301.63333"/>
			<point x="470.5" y="1310"/>
			<point x="374.73333" y="1310" type="curve" smooth="yes"/>
			<point x="302.23333" y="1310"/>
			<point x="242.4" y="1306.53333"/>
			<point x="173.3" y="1298.36667" type="curve"/>
			<point x="152.03333" y="1167.73333" type="line"/>
			<point x="211.43333" y="1174.5"/>
			<point x="297.76667" y="1180.36667"/>
			<point x="348.53333" y="1180.36667" type="curve" smooth="yes"/>
			<point x="390.5" y="1180.36667"/>
			<point x="437.53333" y="1176.53333"/>
			<point x="469.13333" y="1165.63333" type="curve" smooth="yes"/>
			<point x="486.2" y="1159.8"/>
			<point x="499.2" y="1151.2"/>
			<point x="506.96667" y="1141.06667" type="curve" smooth="yes"/>
			<point x="520.43333" y="1124.16667"/>
			<point x="526.26667" y="1091.7"/>
			<point x="526.26667" y="1060.66667" type="curve" smooth="yes"/>
			<point x="526.26667" y="1029.2"/>
			<point x="516.73333" y="970.56667"/>
			<point x="506.96667" y="924.1" type="curve" smooth="yes"/>
		</contour>
	</outline>
</glyph>
<glyph name="shin-hb" format="2">
	<advance width="1128.96667"/>
	<unicode hex="05E9"/>
	<anchor x="448.43333" y="0" name="bottom"/>
	<anchor x="-96.16667" y="0" name="bottomleft"/>
	<anchor x="545.63333" y="432.83333" name="center"/>
	<anchor x="680.76667" y="1094.8" name="top"/>
	<anchor x="355.76667" y="1334.53333" name="topleft"/>
	<anchor x="1225.13333" y="1094.8" name="topright"/>
	<note>
		afii57689
	</note>
	<outline>
		<contour>
			<point x="36.9" y="0" type="line"/>
			<point x="230.8" y="0" type="line" smooth="yes"/>
			<point x="334.56667" y="0"/>
			<point x="426.63333" y="12.6"/>
			<point x="510.73333" y="46.5" type="curve" smooth="yes"/>
			<point x="634.9" y="94.73333"/>
			<point x="739.43333" y="180.53333"/>
			<point x="822.23333" y="288.53333" type="curve" smooth="yes"/>
			<point x="918.43333" y="404.83333"/>
			<point x="984.66667" y="560.26667"/>
			<point x="1034.6" y="723.8" type="curve" smooth="yes"/>
			<point x="1207.36667" y="1290" type="line"/>
			<point x="1061.93333" y="1290" type="line"/>
			<point x="891.1" y="729.86667" type="line" smooth="yes"/>
			<point x="853.26667" y="606.96667"/>
			<point x="802.06667" y="489"/>
			<point x="734.8" y="398.33333" type="curve" smooth="yes"/>
			<point x="612.53333" y="228.66667"/>
			<point x="438.56667" y="129.7"/>
			<point x="252.06667" y="129.7" type="curve" smooth="yes"/>
			<point x="200.46667" y="129.7" type="line"/>
			<point x="258.03333" y="524.1" type="line"/>
			<point x="189.86667" y="460.46667" type="line"/>
			<point x="222.66667" y="448.3"/>
			<point x="230.03333" y="450.36667"/>
			<point x="252.33333" y="452.66667" type="curve" smooth="yes"/>
			<point x="381.23333" y="487.16667"/>
			<point x="473.8" y="536.53333"/>
			<point x="547.73333" y="632.1" type="curve" smooth="yes"/>
			<point x="611.83333" y="716.6"/>
			<point x="654.46667" y="820.4"/>
			<point x="696.53333" y="957.13333" type="curve" smooth="yes"/>
			<point x="796.06667" y="1290" type="line"/>
			<point x="652.1" y="1290" type="line"/>
			<point x="556.3" y="971.83333" type="line" smooth="yes"/>
			<point x="517.23333" y="844.8"/>
			<point x="476.16667" y="758"/>
			<point x="426.66667" y="695.53333" type="curve" smooth="yes"/>
			<point x="379.6" y="637.03333"/>
			<point x="324.86667" y="601.83333"/>
			<point x="259.13333" y="575.76667" type="curve" smooth="yes"/>
			<point x="250.33333" y="573.46667"/>
			<point x="238.26667" y="574.43333"/>
			<point x="228.23333" y="575" type="curve"/>
			<point x="249.1" y="531.66667" type="line"/>
			<point x="350.33333" y="1290" type="line"/>
			<point x="203.53333" y="1290" type="line"/>
		</contour>
	</outline>
</glyph>
<glyph name="tav-hb" format="2">
	<advance width="948.33333"/>
	<unicode hex="05EA"/>
	<anchor x="358" y="0" name="bottom"/>
	<anchor x="-96.16667" y="0" name="bottomleft"/>
	<anchor x="498.7" y="650.8" name="center"/>
	<anchor x="590.33333" y="1094.8" name="top"/>
	<anchor x="136.16667" y="1094.8" name="topleft"/>
	<note>
		afii57690
	</note>
	<outline>
		<contour>
			<point x="-1.43333" y="-6.76667" type="curve" smooth="yes"/>
			<point x="143.13333" y="-6.76667"/>
			<point x="197.23333" y="78.36667"/>
			<point x="235.7" y="253.7" type="curve" smooth="yes"/>
			<point x="433.2" y="1173.83333" type="line"/>
			<point x="509.2" y="1178.36667"/>
			<point x="566.5" y="1179.9"/>
			<point x="592.13333" y="1179.9" type="curve" smooth="yes"/>
			<point x="623.3" y="1179.9"/>
			<point x="671.56667" y="1176.2"/>
			<point x="705.1" y="1155" type="curve" smooth="yes"/>
			<point x="735.56667" y="1135.33333"/>
			<point x="749" y="1105.3"/>
			<point x="749" y="1048.33333" type="curve" smooth="yes"/>
			<point x="749" y="1013.9"/>
			<point x="743.53333" y="972.96667"/>
			<point x="733.06667" y="924.1" type="curve" smooth="yes"/>
			<point x="536.9" y="0" type="line"/>
			<point x="689.3" y="0" type="line"/>
			<point x="884.3" y="916.86667" type="line" smooth="yes"/>
			<point x="897.7" y="979.1"/>
			<point x="905.33333" y="1034.03333"/>
			<point x="905.33333" y="1079.53333" type="curve" smooth="yes"/>
			<point x="905.33333" y="1141.63333"/>
			<point x="889.73333" y="1203.8"/>
			<point x="839.46667" y="1247.03333" type="curve" smooth="yes"/>
			<point x="777.56667" y="1301.66667"/>
			<point x="671.7" y="1310"/>
			<point x="566.56667" y="1310" type="curve" smooth="yes"/>
			<point x="450.7" y="1310"/>
			<point x="344.46667" y="1297.06667"/>
			<point x="212.3" y="1280.3" type="curve"/>
			<point x="190.03333" y="1149.2" type="line"/>
			<point x="219.9" y="1155.3"/>
			<point x="248.76667" y="1157.76667"/>
			<point x="278.4" y="1159.23333" type="curve"/>
			<point x="84.23333" y="260.7" type="line" smooth="yes"/>
			<point x="74.36667" y="217"/>
			<point x="63.36667" y="191.4"/>
			<point x="49.36667" y="171.46667" type="curve" smooth="yes"/>
			<point x="28.7" y="141.36667"/>
			<point x="9.7" y="128.56667"/>
			<point x="-23.33333" y="128.33333" type="curve" smooth="yes"/>
			<point x="-36.73333" y="128.33333"/>
			<point x="-55.8" y="131.8"/>
			<point x="-79.83333" y="137.26667" type="curve"/>
			<point x="-102.86667" y="9.16667" type="line"/>
			<point x="-69.56667" y="-1.66667"/>
			<point x="-37.03333" y="-6.76667"/>
		</contour>
	</outline>
</glyph>
<glyph name="uniAB61" format="2">
	<advance width="1120"/>
	<unicode hex="AB61"/>
	<outline>
		<contour>
			<point x="1" y="0" type="line"/>
			<point x="148" y="0" type="line"/>
			<point x="254" y="498" type="line"/>
			<point x="444" y="498" type="line"/>
			<point x="470" y="627" type="line"/>
			<point x="281" y="627" type="line"/>
			<point x="380" y="1096" type="line"/>
			<point x="234" y="1096" type="line"/>
		</contour>
		<component base="e" xOffset="350"/>
	</outline>
</glyph>
<glyph name="dagesh-hb.small" format="2">
	<advance width="0"/>
	<anchor x="13" y="609.33333" name="_center"/>
	<note>
		afii57807
	</note>
	<outline>
		<contour>
			<point x="-0.26667" y="538.06667" type="curve" smooth="yes"/>
			<point x="50.7" y="538.06667"/>
			<point x="79" y="579.46667"/>
			<point x="79" y="629.26667" type="curve" smooth="yes"/>
			<point x="79" y="662.73333"/>
			<point x="59.9" y="680.6"/>
			<point x="24.26667" y="680.6" type="curve" smooth="yes"/>
			<point x="-25.46667" y="680.6"/>
			<point x="-53.53333" y="636.36667"/>
			<point x="-53.53333" y="587.1" type="curve" smooth="yes"/>
			<point x="-53.53333" y="554.7"/>
			<point x="-35.9" y="538.06667"/>
		</contour>
	</outline>
</glyph>
<glyph name="uni0268dotless" format="2">
	<advance width="385"/>
	<outline>
		<contour>
			<point x="-5" y="510" type="line"/>
			<point x="366" y="510" type="line"/>
			<point x="392" y="631" type="line"/>
			<point x="22" y="631" type="line"/>
		</contour>
		<component base="idotless"/>
	</outline>
</glyph>
